<?xml version="1.0" standalone="no"?>
<!DOCTYPE svg PUBLIC "-//W3C//DTD SVG 20010904//EN"
 "http://www.w3.org/TR/2001/REC-SVG-20010904/DTD/svg10.dtd">
<svg version="1.0" xmlns="http://www.w3.org/2000/svg"
 width="1920.000000pt" height="1920.000000pt" viewBox="0 0 1920.000000 1920.000000"
 preserveAspectRatio="xMidYMid meet">

<g transform="translate(0.000000,1920.000000) scale(0.100000,-0.100000)"
fill="#000000" stroke="none">
<path d="M8775 15033 c-759 -44 -1475 -240 -1930 -528 -79 -50 -99 -60 -89
-43 34 58 135 180 219 266 58 57 95 102 86 102 -9 0 -65 -17 -126 -38 -319
-109 -595 -344 -792 -673 l-32 -54 -1 77 c0 182 -64 309 -198 398 -60 39 -68
38 -37 -7 13 -21 32 -68 42 -104 28 -109 17 -142 -199 -559 -60 -116 -118
-244 -134 -295 l-29 -90 -6 50 c-10 74 -10 290 1 370 22 171 23 167 -16 65
-136 -360 -163 -783 -67 -1075 63 -195 190 -375 336 -480 31 -22 56 -42 56
-45 1 -3 -28 -20 -64 -39 -81 -41 -169 -135 -214 -225 -96 -196 -95 -460 4
-658 19 -38 35 -73 35 -78 0 -5 -84 -147 -186 -317 -103 -169 -204 -339 -225
-377 l-40 -69 63 -71 c34 -39 104 -116 154 -171 l92 -100 -114 -160 c-210
-296 -241 -348 -407 -681 -91 -182 -191 -368 -221 -413 -78 -114 -96 -153 -96
-206 0 -79 55 -159 177 -256 135 -107 275 -159 431 -159 l82 0 0 -31 c0 -73
-22 -111 -111 -199 -97 -95 -113 -128 -113 -225 1 -89 40 -170 120 -245 35
-32 84 -71 108 -85 l45 -26 -70 -66 c-82 -78 -115 -129 -129 -202 -12 -65 5
-157 49 -262 l31 -73 -49 -96 c-82 -160 -128 -340 -152 -594 -15 -159 -6 -588
15 -766 30 -241 15 -426 -46 -600 -52 -147 -102 -232 -228 -389 -44 -55 -80
-106 -80 -114 0 -39 154 -126 323 -182 472 -157 1059 -61 1712 280 254 132
568 332 815 518 69 52 127 93 129 91 11 -10 -138 -261 -249 -416 -13 -18 -9
-18 39 7 115 58 394 223 546 322 674 442 1115 913 1256 1343 l28 85 1 -73 c0
-87 -28 -230 -70 -361 -17 -52 -29 -96 -26 -98 6 -7 125 131 189 219 33 46 82
128 108 183 65 135 89 239 89 387 0 228 -53 397 -288 918 -89 197 -134 320
-178 479 -73 266 -108 568 -102 878 2 95 0 169 -4 165 -16 -16 -89 -226 -117
-334 -48 -185 -62 -283 -68 -466 -3 -95 -9 -170 -14 -165 -17 18 -81 225 -106
342 -36 172 -38 421 -4 581 62 292 210 598 369 763 103 106 240 189 361 217
81 19 221 8 305 -24 91 -35 185 -103 252 -184 68 -82 155 -256 186 -372 40
-153 28 -403 -27 -543 -14 -35 25 -6 78 59 112 135 169 304 168 502 0 130 -18
235 -57 333 -47 118 -47 117 12 54 114 -123 201 -279 223 -400 19 -110 19
-120 10 -202 -12 -106 -46 -215 -122 -383 -33 -74 -81 -182 -107 -240 -56
-126 -92 -227 -119 -335 -21 -85 -41 -225 -32 -225 3 0 19 24 34 54 31 59 157
237 157 221 0 -6 -14 -50 -30 -98 -123 -358 -144 -735 -56 -994 37 -108 94
-210 153 -272 l52 -56 -42 86 c-46 92 -80 188 -99 284 -18 89 -14 305 6 400
49 225 166 467 334 689 l47 62 1 -155 c1 -119 6 -178 22 -248 62 -275 219
-480 487 -637 79 -46 264 -128 318 -142 27 -6 28 -5 20 22 -4 16 -8 115 -7
219 0 172 3 199 27 288 37 137 93 249 254 507 159 256 231 383 309 543 l54
112 -6 -60 c-5 -50 -48 -273 -70 -365 -5 -19 8 -10 52 39 283 308 410 677 375
1088 -14 160 -57 368 -111 538 -22 72 -44 139 -47 150 -20 66 124 -128 185
-250 90 -180 127 -349 126 -580 0 -181 -12 -270 -58 -417 -13 -43 -22 -78 -20
-78 2 0 22 33 46 73 169 289 216 626 133 952 -27 107 -94 257 -155 346 -22 32
-40 61 -40 64 0 3 23 16 52 28 l52 23 85 -24 c71 -20 110 -25 226 -26 165 -1
221 12 364 81 78 37 108 59 181 131 72 72 95 102 128 172 102 214 117 477 46
821 -5 26 -3 26 59 33 103 10 215 43 317 93 77 38 110 62 176 128 136 135 193
283 194 496 0 138 -32 268 -99 404 -45 91 -149 250 -158 241 -2 -2 12 -41 30
-87 41 -101 71 -201 92 -298 20 -97 19 -99 -14 -11 -37 99 -58 140 -153 292
-112 181 -111 179 -128 468 -14 244 -48 345 -148 446 -83 83 -236 150 -389
170 -51 7 -55 9 -28 15 53 12 164 9 243 -6 51 -10 114 -33 184 -68 101 -51
106 -52 87 -26 -64 90 -251 201 -404 239 -318 80 -697 29 -935 -126 -36 -23
-76 -54 -88 -67 l-24 -25 59 -7 c193 -20 342 -75 492 -182 l24 -17 -17 32
c-22 43 -81 108 -130 144 -48 35 -31 36 73 8 86 -24 166 -62 248 -118 377
-258 556 -749 496 -1362 l-6 -65 -13 91 c-43 310 -181 605 -410 882 -42 51
-78 91 -79 90 -1 -2 17 -63 41 -135 83 -251 121 -511 111 -768 -5 -156 -34
-358 -48 -349 -5 3 -9 16 -9 29 0 44 -50 298 -90 462 -135 543 -336 884 -625
1061 -212 129 -420 80 -560 -131 l-37 -55 41 -64 c172 -272 263 -653 232 -971
-11 -115 -48 -287 -71 -326 -6 -11 -9 43 -10 161 0 265 -34 477 -110 691 -103
291 -252 521 -489 757 -200 200 -391 336 -660 472 -488 247 -1144 414 -1711
436 -382 15 -694 -17 -952 -98 -51 -16 -94 -28 -95 -26 -7 7 133 68 230 100
194 65 420 106 697 127 190 14 619 6 814 -15 77 -9 141 -14 143 -12 13 13
-344 90 -537 115 -266 35 -638 49 -895 34z m-1115 -617 c0 -2 -28 -14 -63 -25
-94 -32 -330 -151 -432 -218 -259 -172 -474 -401 -588 -629 -95 -188 -143
-419 -134 -634 5 -114 4 -122 -9 -92 -27 62 -63 202 -75 289 -78 588 371 1078
1181 1287 96 25 120 30 120 22z m953 -706 c51 -34 155 -92 232 -130 275 -135
563 -226 972 -310 331 -68 589 -132 753 -186 134 -45 337 -136 375 -169 l20
-17 -20 7 c-248 88 -616 148 -1140 185 -184 13 -262 24 -388 56 -308 76 -582
229 -797 444 -154 154 -293 359 -162 238 35 -32 104 -85 155 -118z m-1594
-195 c-28 -220 56 -402 231 -505 181 -108 449 -151 1015 -165 599 -15 874 -50
1186 -152 123 -40 408 -167 398 -178 -3 -2 -42 9 -87 26 -151 53 -303 87 -522
115 -100 13 -276 18 -875 24 -412 4 -763 11 -780 15 -16 3 -75 15 -129 27
-416 84 -589 327 -496 693 19 75 60 189 65 183 2 -2 -1 -39 -6 -83z m-965
-367 c112 -479 507 -752 1241 -857 276 -40 792 -71 1185 -71 91 0 242 -5 335
-10 508 -30 840 -107 1173 -274 108 -54 244 -134 207 -121 -11 3 -72 24 -135
46 -552 191 -1216 217 -1795 69 -196 -50 -315 -94 -503 -186 -115 -57 -164
-87 -201 -124 -51 -51 -81 -116 -81 -176 0 -99 83 -250 212 -387 50 -53 67
-77 54 -74 -12 3 -101 26 -199 51 -98 26 -183 46 -188 44 -6 -2 13 -24 43 -48
53 -45 450 -399 556 -497 32 -29 53 -52 47 -53 -5 0 -77 18 -160 40 -82 22
-157 40 -165 40 -8 0 6 -21 32 -47 131 -135 274 -375 333 -558 59 -183 75
-422 41 -615 -35 -201 -134 -438 -263 -632 -65 -97 -219 -288 -238 -295 -7 -2
-12 25 -13 69 -3 81 -36 236 -56 264 -12 16 -14 14 -26 -22 -22 -70 -129 -267
-195 -359 -36 -49 -108 -139 -160 -200 -107 -124 -167 -228 -211 -369 l-27
-89 -58 7 c-79 8 -146 35 -223 90 -85 61 -156 146 -284 341 -125 190 -189 256
-302 312 l-80 40 71 47 c39 26 91 66 115 88 l44 40 34 -25 c44 -34 130 -133
200 -231 31 -43 56 -70 56 -61 0 31 -70 228 -114 320 -23 50 -68 127 -98 171
-38 55 -60 99 -67 135 -22 99 -76 166 -165 203 -87 36 -192 8 -271 -75 l-40
-40 72 7 c94 9 136 0 180 -39 77 -68 96 -177 44 -258 -28 -44 -89 -90 -157
-118 -30 -12 -35 -10 -77 22 -112 86 -189 87 -407 8 -100 -37 -166 -55 -212
-58 -62 -5 -72 -3 -150 35 -45 22 -94 52 -107 66 l-24 25 150 298 c82 164 181
377 219 473 102 257 181 380 323 496 74 61 95 68 87 27 -3 -16 -8 -68 -11
-118 l-7 -90 36 54 c52 77 70 99 133 163 65 67 108 90 152 82 61 -12 65 -39
41 -249 -27 -227 -26 -234 11 -162 44 85 141 175 247 229 50 25 220 88 400
148 172 57 310 105 307 108 -8 9 -249 103 -380 148 -77 27 -156 47 -195 51
-95 8 -224 -19 -395 -82 -33 -12 165 183 229 226 43 29 68 39 98 39 22 0 111
-25 201 -56 311 -106 527 -152 762 -160 155 -5 155 0 -5 38 -139 34 -239 74
-450 182 -465 238 -425 220 -499 224 -84 5 -127 -6 -438 -108 -234 -77 -389
-115 -406 -100 -16 14 14 124 93 335 121 326 143 407 155 570 l6 80 -47 -95
-47 -95 -19 60 c-29 87 -36 288 -13 375 53 206 201 334 432 374 30 5 26 0 -56
-82 -72 -72 -95 -104 -134 -182 -26 -52 -47 -99 -47 -103 0 -5 27 15 59 45
140 126 405 237 681 284 52 9 96 17 98 18 1 2 -34 24 -78 50 -299 177 -501
421 -578 698 -25 93 -24 343 3 458 l20 85 12 -140 c6 -77 18 -170 27 -207z
m5903 -1448 c-61 -140 -133 -245 -247 -360 -119 -119 -215 -182 -360 -236
-155 -59 -213 -68 -430 -68 -174 0 -209 3 -320 27 -245 53 -245 54 15 60 195
4 249 9 351 31 363 77 699 266 924 519 33 38 68 80 77 93 30 46 25 16 -10 -66z
m1783 -85 c33 -104 49 -236 40 -331 -7 -64 -6 -65 -34 61 -9 39 -34 107 -57
153 -42 82 -42 83 -26 120 9 20 21 49 27 65 5 15 12 27 14 27 3 0 19 -43 36
-95z m-153 -313 c34 -110 31 -237 -9 -324 -50 -108 -156 -186 -301 -222 -75
-19 -247 -34 -247 -21 0 4 28 38 63 75 105 114 165 233 197 388 l16 84 58 23
c61 25 123 64 152 96 18 20 19 20 32 2 7 -10 24 -55 39 -101z m-507 -282 c-43
-67 -145 -159 -220 -199 -33 -18 -60 -30 -60 -28 0 2 15 38 34 78 31 66 39 76
73 88 47 16 165 84 183 106 27 33 21 3 -10 -45z m-4480 -3570 c274 -619 305
-805 174 -1064 -88 -173 -279 -369 -634 -649 -74 -59 -136 -104 -137 -100 -2
5 6 73 16 153 10 80 17 147 15 149 -2 2 -29 -20 -61 -49 -104 -94 -260 -187
-595 -356 -330 -167 -478 -256 -623 -374 -94 -77 -223 -204 -290 -287 -27 -34
-51 -60 -54 -58 -7 8 86 191 128 254 143 211 299 341 756 632 291 186 447 295
580 404 99 82 276 258 367 365 56 66 55 76 29 -170 -10 -96 -17 -177 -15 -179
6 -7 160 127 220 191 222 238 252 425 138 868 -41 157 -104 433 -104 451 0 21
5 10 90 -181z m-2585 -25 c225 -45 273 -64 339 -136 70 -75 122 -161 140 -232
27 -103 -9 -185 -143 -327 l-80 -85 -1 55 c0 83 -12 190 -20 190 -4 0 -20 -19
-35 -42 -98 -149 -250 -276 -426 -355 l-27 -12 -26 82 c-14 45 -43 119 -65
164 -25 52 -36 85 -30 89 18 11 113 34 142 34 15 0 27 3 27 6 0 15 -59 75
-139 139 -111 91 -151 149 -151 220 0 42 6 60 29 91 40 54 76 86 146 128 70
43 64 43 320 -9z"/>
</g>
</svg>
